:SAMPLES-PER-SECOND 30
:FULLY-SPECIFIED
:DEGREES
198
root  -14.916 34.8739 -21.7937 72.3066 -75.239 -80.4951
RightUpLeg  -14.2054 -19.252 0.14865
RightLeg  47.3332 -2.47722 -3.22154
RightFoot  -18.2132 1.24456 22.5408
RightToes  6.35927e-011 1.30204e-014 -6.03759e-014
Spine  21.4313 -0.99487 -11.7547
Spine1  -4.39335 -4.60719 17.8295
HEad  0.335463 -21.9632 10.4566
LeftShoulder1  2.09532 -5.50678 -16.5495
LeftArm  15.0791 3.95014 -58.5425
LeftForeArm  177.149 -80.8755 -121.412
LeftHand  0.262166 -10.2989 -1.81094
RightShoulder  1.24566 1.44902 18.7136
RightArm  -21.9676 -18.911 44.7279
RightForeArm  74.2063 77.2571 42.4578
RightHand  0.294306 -19.3499 -3.64757
LeftUpLeg  -11.9997 8.31982 46.3367
LeftLeg  49.3902 8.14775 10.4063
LeftFoot  3.05304 5.36243 -40.9043
LeftToes  7.40077e-010 7.2695e-011 -6.03601e-011
199
root  -14.8727 34.588 -20.893 55.5075 -77.5177 -64.9708
RightUpLeg  -13.2491 -18.2517 -5.78905
RightLeg  49.6552 -3.27595 -4.49681
RightFoot  -17.7871 1.17268 22.7173
RightToes  6.35927e-011 1.30204e-014 -6.03759e-014
Spine  23.3026 -0.986945 -6.69011
Spine1  -4.26126 -3.27989 14.0196
HEad  -2.48638 -2.58211 3.6426
LeftShoulder1  1.98998 -5.01489 -16.6594
LeftArm  11.6051 5.52841 -57.3711
LeftForeArm  176.577 -79.5086 -130.015
LeftHand  2.21312 -5.78774 -23.1491
RightShoulder  1.14727 1.21939 17.7851
RightArm  -20.4906 -19.1278 45.2884
RightForeArm  91.5952 79.758 55.7431
RightHand  -2.25634 -21.4857 14.8982
LeftUpLeg  -16.9067 10.7246 43.7944
LeftLeg  56.3934 2.04179 3.73302
LeftFoot  8.84438 7.10677 -38.9358
LeftToes  7.40077e-010 7.2695e-011 -6.03601e-011
200
root  -14.8984 34.5626 -19.77 30.9702 -79.5625 -40.6432
RightUpLeg  -12.2388 -16.5287 -12.959
RightLeg  49.9914 -4.45232 -6.01707
RightFoot  -16.382 0.936869 23.5236
RightToes  6.35927e-011 1.30204e-014 -6.03759e-014
Spine  23.8336 -0.962286 -2.36399
Spine1  -4.34887 -1.81782 9.15923
HEad  -6.31062 16.8474 -4.03907
LeftShoulder1  1.89012 -4.82259 -15.9462
LeftArm  8.09879 5.80877 -55.1048
LeftForeArm  165.94 -78.8991 -130.46
LeftHand  -0.0191572 4.8795 -44.4784
RightShoulder  1.06627 0.965863 17.3198
RightArm  -17.9125 -18.8503 44.7377
RightForeArm  108.285 81.0415 68.2743
RightHand  -3.8414 -18.0347 32.8316
LeftUpLeg  -22.0346 14.3894 38.6344
LeftLeg  62.9818 -1.96727 -3.46527
LeftFoot  13.1893 7.51095 -33.9372
LeftToes  7.40077e-010 7.2695e-011 -6.03601e-011
201
root  -15.0154 34.9737 -18.6258 -0.152039 -80.2815 -9.27264
RightUpLeg  -10.0399 -15.2043 -20.6707
RightLeg  46.945 -5.89951 -7.06682
RightFoot  -13.601 0.391151 24.1213
RightToes  6.35927e-011 1.30204e-014 -6.03759e-014
Spine  23.4134 -0.292574 -0.118761
Spine1  -4.15057 -0.28808 4.03145
HEad  -10.6134 34.9587 -11.6036
LeftShoulder1  1.79374 -4.66644 -15.1269
LeftArm  4.11101 4.87684 -51.7664
LeftForeArm  148.207 -79.35 -123.235
LeftHand  -8.26711 19.5477 -59.2493
RightShoulder  1.03384 0.866385 17.1039
RightArm  -14.5489 -17.3519 43.0319
RightForeArm  120.961 81.5612 80.6315
RightHand  -2.96463 -11.8201 47.0902
LeftUpLeg  -24.6509 20.6123 31.7057
LeftLeg  65.6779 -2.8976 -6.25981
LeftFoot  13.0865 6.45687 -29.5773
LeftToes  7.40077e-010 7.2695e-011 -6.03601e-011
202
root  -15.1822 35.6801 -17.378 -26.5523 -78.786 17.2214
RightUpLeg  -6.12211 -14.1495 -28.0455
RightLeg  40.4964 -6.71956 -6.44433
RightFoot  -9.37093 -0.512573 25.146
RightToes  6.35927e-011 1.30204e-014 -6.03759e-014
Spine  23.1332 0.386078 0.821427
Spine1  -4.12266 0.755006 0.553555
HEad  -14.6156 50.8138 -18.0926
LeftShoulder1  1.59765 -4.01314 -14.3533
LeftArm  -1.39798 4.26528 -47.8922
LeftForeArm  135.474 -79.8281 -115.82
LeftHand  -14.4457 29.2727 -60.0815
RightShoulder  0.993106 0.854011 16.1503
RightArm  -10.5313 -15.146 42.0369
RightForeArm  135.452 81.4631 98.2275
RightHand  -1.67647 -8.78116 49.2482
LeftUpLeg  -24.3132 27.8639 24.7929
LeftLeg  63.0481 -2.18322 -4.13022
LeftFoot  12.987 5.86945 -27.1765
LeftToes  7.40077e-010 7.2695e-011 -6.03601e-011
203
root  -15.3916 36.4702 -15.9397 -39.0223 -76.4118 30.5032
RightUpLeg  -2.06961 -12.4235 -33.575
RightLeg  32.0261 -9.41177 -6.41397
RightFoot  -3.03364 -2.04081 27.1377
RightToes  6.35927e-011 1.30204e-014 -6.03759e-014
Spine  22.4367 0.483545 2.37255
Spine1  -4.90553 1.23213 -1.951
HEad  -17.1444 62.9645 -22.2782
LeftShoulder1  1.34407 -3.10518 -13.3436
LeftArm  -7.96013 4.68462 -43.8196
LeftForeArm  134.487 -80.3365 -111.208
LeftHand  -9.88401 27.2539 -44.9867
RightShoulder  0.885586 0.678472 14.3651
RightArm  -6.16694 -13.5233 42.7653
RightForeArm  155.294 80.5052 117.738
RightHand  -0.630516 -6.75114 33.8012
LeftUpLeg  -22.4914 33.2058 18.514
LeftLeg  56.1994 -1.16971 -1.35931
LeftFoot  17.1501 6.17745 -24.4783
LeftToes  7.40077e-010 7.2695e-011 -6.03601e-011
204
root  -15.598 37.2598 -14.5052 -45.0753 -74.8876 38.8327
RightUpLeg  -0.201232 -10.2472 -36.3758
RightLeg  24.0556 -18.562 -8.96928
RightFoot  6.06675 -4.00119 26.3672
RightToes  6.35927e-011 1.30204e-014 -6.03759e-014
Spine  20.918 0.632205 4.3396
Spine1  -6.39548 1.80539 -5.32713
HEad  -17.4841 70.1648 -23.6226
LeftShoulder1  1.14694 -2.47985 -12.0566
LeftArm  -13.7659 5.57357 -40.0724
LeftForeArm  139.515 -80.991 -106.935
LeftHand  -2.53653 17.4768 -22.019
RightShoulder  0.754504 0.320763 12.7819
RightArm  -2.61332 -12.3237 43.6593
RightForeArm  172.831 78.8208 132.443
RightHand  0.0584247 -4.12883 7.68798
LeftUpLeg  -19.7741 35.1313 12.7017
LeftLeg  47.3269 -1.50562 -1.22956
LeftFoot  20.9616 6.35485 -22.1202
LeftToes  7.40077e-010 7.2695e-011 -6.03601e-011
